<svg width="28" height="28" viewBox="0 0 28 28" fill="none" xmlns="http://www.w3.org/2000/svg">
<path d="M14.0001 23.6C10.6667 23.6 7.72008 21.8933 6.00008 19.3333C6.04008 16.6666 11.3334 15.2 14.0001 15.2C16.6667 15.2 21.9601 16.6666 22.0001 19.3333C21.1186 20.6458 19.9279 21.7215 18.5328 22.4655C17.1378 23.2096 15.5812 23.5991 14.0001 23.6ZM14.0001 4.66663C15.0609 4.66663 16.0784 5.08805 16.8285 5.8382C17.5787 6.58834 18.0001 7.60576 18.0001 8.66663C18.0001 9.72749 17.5787 10.7449 16.8285 11.4951C16.0784 12.2452 15.0609 12.6666 14.0001 12.6666C12.9392 12.6666 11.9218 12.2452 11.1717 11.4951C10.4215 10.7449 10.0001 9.72749 10.0001 8.66663C10.0001 7.60576 10.4215 6.58834 11.1717 5.8382C11.9218 5.08805 12.9392 4.66663 14.0001 4.66663ZM14.0001 0.666626C12.2491 0.666626 10.5153 1.0115 8.89763 1.68157C7.27996 2.35163 5.81011 3.33375 4.57199 4.57187C2.07151 7.07235 0.666748 10.4637 0.666748 14C0.666748 17.5362 2.07151 20.9276 4.57199 23.428C5.81011 24.6662 7.27996 25.6483 8.89763 26.3184C10.5153 26.9884 12.2491 27.3333 14.0001 27.3333C17.5363 27.3333 20.9277 25.9285 23.4282 23.428C25.9287 20.9276 27.3334 17.5362 27.3334 14C27.3334 6.62663 21.3334 0.666626 14.0001 0.666626Z" fill="#FFE600"/>
</svg>
